# xmcd CD database file
#
# Track frame offsets:
#	182
#	10825
#	19875
#	28355
#	37022
#	43380
#	45892
#	51812
#	63417
#	72340
#	81220
#	85812
#	89310
#	97465
#	103340
#	110310
#	117962
#	124382
#	131592
#	142092
#	151642
#	160442
#	167200
#	176142
#
# Disc length: 2417 seconds
#
# Revision: 0
# Processed by: cddbd v1.5.1PL0 Copyright (c) Steve Scherf et al.
# Submitted via: CDex 1.51
#
DISCID=5b096f18
DTITLE=Various Artist - Na poslednim vandru
DYEAR=1900
DGENRE=Country
TTITLE0=Osada, Stara Zas - J. Vacek
TTITLE1=Kam tak spechas, trempe kamarade - R. Harnisch H+T
TTITLE2=Na osade hrali - J. Motl H+T
TTITLE3=Ascalona - E.S. Prkno H+T
TTITLE4=Az ztichnou bile skaly - J.Korda
TTITLE5=Jezero drima - V.E.Fort H+T
TTITLE6=Malajka - S. Kunst
TTITLE7=Reka huci - P. Mucha
TTITLE8=Ja prijdu za tebou - V.E.Fort H+T
TTITLE9=Bessie - J. Motl H+T
TTITLE10=Marta - J. Motl H+T
TTITLE11=Konicku muj bily - J. Motl H+T
TTITLE12=Taboraku plapolej - K. Vacek
TTITLE13=Mam rad krasny devce za rekou - J. Voldan H+T
TTITLE14=Pisen domorodce - J.Kumok H+T
TTITLE15=Niagara - J.Chlumecky
TTITLE16=Japonecka - S. Kunst
TTITLE17=Qudalcanal - J. Voldan H+T
TTITLE18=Rodne udoli - J. Kunst
TTITLE19=Zradne Banjo - S. Kunst
TTITLE20=Zlatokop Tom - R. Harnisch H+T
TTITLE21=Ruti - Suti - S.Kunst
TTITLE22=Rikartado - B. Hurikan H+T
TTITLE23=Nezapominejte kamaradi - J. Korda H+T
EXTD=
EXTT0=
EXTT1=
EXTT2=
EXTT3=
EXTT4=
EXTT5=
EXTT6=
EXTT7=
EXTT8=
EXTT9=
EXTT10=
EXTT11=
EXTT12=
EXTT13=
EXTT14=
EXTT15=
EXTT16=
EXTT17=
EXTT18=
EXTT19=
EXTT20=
EXTT21=
EXTT22=
EXTT23=
PLAYORDER=
